<?xml version="1.0" encoding="UTF-8"?>
<svg id="Laag_2" xmlns="http://www.w3.org/2000/svg" viewBox="0 0 60.35 54.63">
  <defs>
    <style>
      .cls-1 {
        fill: #1d1d1b;
      }
    </style>
  </defs>
  <g id="Design">
    <path class="cls-1" d="M21.19,38.34c1.63,0,2.57-1.84,1.62-3.16-2.2-3.07-4.21-7.06-4.21-10.38,0-2.46.68-7.93,6.55-8.8.97-.14,1.68-.99,1.68-1.97v-2.01c0-1.23-1.09-2.15-2.31-1.98-7.22.99-11.92,6.67-11.92,14.77,0,4.33,2.1,8.95,4.53,12.66.36.56.99.88,1.66.88h2.4Z"/>
    <rect class="cls-1" x="7.01" y="49.63" width="46.28" height="5" rx="2" ry="2"/>
    <path class="cls-1" d="M6,26.46c0-.97.27-1.66.86-2.24.3-.29.8-.65,1.58-.98.66-.28,1.12-.91,1.21-1.62s.21-1.4.35-2.07c.32-1.48-1.13-2.76-2.58-2.3-1.95.61-3.53,1.5-4.73,2.66-1.76,1.7-2.69,3.97-2.69,6.55,0,4.05,1.48,9.18,5.08,13.98.37.5.97.78,1.6.78h2.59c1.72,0,2.61-2,1.5-3.31-3.24-3.81-4.77-8-4.77-11.46Z"/>
    <path class="cls-1" d="M51.3,47.31H9.01c-.55,0-1-.45-1-1s.45-1,1-1h42.28c.55,0,1,.45,1,1s-.45,1-1,1Z"/>
    <path class="cls-1" d="M54.31,17.75c-1.22-.52-2.81-1-3.34-1.1-1.41-.31-3.31-.43-5.43-.31-2.05-3.46-5.46-5.73-9.78-6.32-1.21-.16-2.29.77-2.29,1.98v2.01c0,.98.71,1.83,1.67,1.97,1.59.23,2.78.81,3.7,1.56-2.4.74-4.75,1.85-6.71,3.41-3.21,2.56-4.91,6-4.91,9.93v.29c0,3.95,3.2,7.15,7.15,7.15h7.13c.67,0,1.29-.32,1.66-.88,2.43-3.71,4.53-8.33,4.53-12.66,0-.9-.1-1.82-.21-2.65.88.02,1.68.12,2.26.26.73.18,1.2.32,2.51.95.58.29.97.6,1.23.84.6.58.86,1.3.86,2.27,0,3.46-1.52,7.65-4.77,11.46-1.11,1.31-.21,3.31,1.5,3.31h2.59c.62,0,1.22-.29,1.6-.78,3.6-4.81,5.08-9.93,5.08-13.98,0-2.58-.93-4.85-2.69-6.55-.85-.82-1.9-1.5-3.13-2.05l-.21-.1ZM39.79,31.95c-.34.66-1.03,1.06-1.77,1.06h-3.47c-.84,0-1.53-.68-1.53-1.53,0-2.25.73-4.4,2.69-5.97,1.61-1.28,3.77-2.19,5.85-2.72.1.71.14,1.37.14,1.88,0,2.07-.79,5.06-1.91,7.26Z"/>
    <rect class="cls-1" x="26.89" y=".54" width="6.62" height="6.62" rx="2" ry="2" transform="translate(6.12 22.48) rotate(-45)"/>
  </g>
</svg>